<svg width="16" height="16" viewBox="0 0 16 16" fill="none" xmlns="http://www.w3.org/2000/svg">
<path d="M0 8C0 3.584 3.576 0 8 0C12.416 0 16 3.584 16 8C16 12.424 12.416 16 8 16C3.576 16 0 12.424 0 8ZM9.784 9.464L11.08 5.368C11.1009 5.30527 11.1042 5.23797 11.0893 5.17353C11.0744 5.10909 11.042 5.05002 10.9956 5.00285C10.9493 4.95567 10.8908 4.92222 10.8266 4.90619C10.7624 4.89015 10.6951 4.89217 10.632 4.912L6.536 6.192C6.45314 6.21765 6.37778 6.26311 6.31645 6.32445C6.25511 6.38578 6.20965 6.46114 6.184 6.544L4.904 10.648C4.88457 10.7103 4.88255 10.7767 4.89816 10.8401C4.91377 10.9034 4.94641 10.9613 4.99255 11.0075C5.03869 11.0536 5.09657 11.0862 5.15993 11.1018C5.22329 11.1174 5.28971 11.1154 5.352 11.096L9.432 9.816C9.51548 9.79154 9.59146 9.74648 9.65297 9.68497C9.71448 9.62346 9.75954 9.54748 9.784 9.464Z" fill="#A7ADB7" fill-opacity="0.7"/>
</svg>
