<svg width="124" height="37" viewBox="0 0 124 37" fill="none" xmlns="http://www.w3.org/2000/svg">
<g clip-path="url(#clip0_928_2)">
<path d="M12.8088 21.9197L18.9188 10.8827C19.0028 10.7307 19.0868 10.5807 19.1628 10.4237C19.2318 10.2817 19.2898 10.1387 19.3278 9.98371C19.4078 9.65771 19.3858 9.31771 19.2618 9.00671C19.1414 8.70031 18.9235 8.44204 18.6418 8.27171C18.3653 8.10435 18.0401 8.03627 17.7198 8.07871C17.3998 8.12171 17.1068 8.27271 16.8758 8.50871C16.7658 8.61871 16.6758 8.74371 16.5928 8.87671C16.5008 9.02271 16.4178 9.17471 16.3338 9.32671L15.9478 10.0237L15.5608 9.32571C15.4768 9.17471 15.3938 9.02271 15.3018 8.87671C15.2207 8.74406 15.1259 8.62037 15.0188 8.50771C14.7934 8.27431 14.4962 8.12325 14.1748 8.07871C13.8548 8.0365 13.5299 8.10457 13.2538 8.27171C12.972 8.44204 12.7542 8.70031 12.6338 9.00671C12.5102 9.31748 12.4871 9.65915 12.5678 9.98371C12.6058 10.1387 12.6638 10.2817 12.7318 10.4237C12.8078 10.5807 12.8918 10.7307 12.9758 10.8827L14.2238 13.1367L9.36177 21.9187H6.02977C5.86177 21.9187 5.69377 21.9187 5.52677 21.9287C5.37477 21.9377 5.22677 21.9567 5.07877 21.9997C4.76877 22.0897 4.49677 22.2797 4.30077 22.5477C4.10482 22.8174 3.9992 23.1422 3.99902 23.4756C3.99884 23.8089 4.10411 24.1338 4.29977 24.4037C4.49677 24.6717 4.76777 24.8607 5.07877 24.9517C5.22677 24.9947 5.37477 25.0137 5.52677 25.0227C5.69377 25.0327 5.86177 25.0327 6.02977 25.0327H19.1268C19.1665 24.9452 19.2 24.855 19.2268 24.7627C19.6418 23.3467 18.6108 21.9187 17.1918 21.9187L12.8088 21.9197ZM7.11277 25.5417L6.32077 27.0417C6.23877 27.1977 6.15577 27.3517 6.08177 27.5127C6.01348 27.6577 5.95988 27.8091 5.92177 27.9647C5.84153 28.2979 5.86383 28.6475 5.98577 28.9677C6.10677 29.2857 6.31977 29.5507 6.59277 29.7227C6.86577 29.8947 7.18177 29.9647 7.49377 29.9197C7.80777 29.8757 8.09377 29.7217 8.31977 29.4797C8.42777 29.3647 8.51577 29.2377 8.59777 29.1017C8.68777 28.9517 8.76877 28.7957 8.85077 28.6397L9.99977 26.4637C9.90977 26.3137 9.05277 24.9937 7.11277 25.5417ZM27.6988 22.5357C27.5058 22.2746 27.2319 22.0848 26.9198 21.9957C26.7736 21.9551 26.6233 21.9313 26.4718 21.9247C26.3038 21.9147 26.1368 21.9147 25.9688 21.9147H22.6478L18.2578 14.0997C17.6816 14.7043 17.3058 15.4718 17.1818 16.2977C17.0206 17.3307 17.213 18.3878 17.7278 19.2977L23.0018 28.6907C23.0858 28.8407 23.1688 28.9907 23.2608 29.1347C23.3448 29.2647 23.4348 29.3877 23.5438 29.4987C23.7748 29.7307 24.0678 29.8787 24.3888 29.9217C24.7098 29.9647 25.0318 29.8977 25.3108 29.7317C25.5914 29.5639 25.8094 29.3089 25.9318 29.0057C26.0568 28.6987 26.0778 28.3637 25.9978 28.0417C25.9582 27.8916 25.9029 27.7462 25.8328 27.6077C25.7578 27.4527 25.6728 27.3047 25.5888 27.1547L24.3728 24.9887H25.9688C26.1368 24.9887 26.3038 24.9887 26.4718 24.9797C26.6238 24.9707 26.7718 24.9517 26.9198 24.9097C27.2324 24.8206 27.5068 24.6303 27.6998 24.3687C27.8952 24.1033 28.0004 23.7823 27.9998 23.4527C28.0004 23.1231 27.8952 22.8021 27.6998 22.5367" fill="white"/>
</g>
<path d="M43.8036 13.084C43.1316 13.084 42.5576 12.958 42.0816 12.706C41.6056 12.4447 41.2416 12.0807 40.9896 11.614L41.7736 11.264C41.951 11.5907 42.2076 11.8473 42.5436 12.034C42.8796 12.2113 43.2856 12.3 43.7616 12.3C44.331 12.3 44.7836 12.1693 45.1196 11.908C45.465 11.6467 45.6376 11.2967 45.6376 10.858C45.6376 10.4567 45.5023 10.1347 45.2316 9.892C44.961 9.64933 44.5876 9.52333 44.1116 9.514H43.3696V8.856H44.1676C44.373 8.856 44.5596 8.8 44.7276 8.688C44.8956 8.576 45.0263 8.42667 45.1196 8.24C45.213 8.05333 45.2596 7.84333 45.2596 7.61C45.2596 7.246 45.129 6.952 44.8676 6.728C44.6156 6.504 44.2423 6.392 43.7476 6.392C43.337 6.392 42.9916 6.476 42.7116 6.644C42.441 6.80267 42.2216 7.04067 42.0536 7.358L41.3256 6.966C41.5403 6.53667 41.8576 6.20067 42.2776 5.958C42.707 5.71533 43.2063 5.594 43.7756 5.594C44.2423 5.594 44.6483 5.67333 44.9936 5.832C45.3483 5.98133 45.6236 6.20067 45.8196 6.49C46.025 6.77 46.1276 7.11067 46.1276 7.512C46.1276 7.85733 46.0436 8.17933 45.8756 8.478C45.7076 8.76733 45.4743 8.98667 45.1756 9.136C45.605 9.26667 45.9363 9.49533 46.1696 9.822C46.4123 10.1487 46.5336 10.5313 46.5336 10.97C46.5336 11.4087 46.417 11.7867 46.1836 12.104C45.9503 12.4213 45.6283 12.664 45.2176 12.832C44.807 13 44.3356 13.084 43.8036 13.084ZM47.5411 10.9C47.5411 10.4427 47.6718 10.0507 47.9331 9.724C48.1944 9.388 48.5538 9.13133 49.0111 8.954C49.4778 8.76733 50.0144 8.674 50.6211 8.674C50.9758 8.674 51.3444 8.702 51.7271 8.758C52.1098 8.814 52.4504 8.898 52.7491 9.01V8.394C52.7491 7.778 52.5671 7.288 52.2031 6.924C51.8391 6.56 51.3351 6.378 50.6911 6.378C50.2991 6.378 49.9118 6.45267 49.5291 6.602C49.1558 6.742 48.7638 6.952 48.3531 7.232L47.9891 6.56C48.4651 6.23333 48.9318 5.99067 49.3891 5.832C49.8464 5.664 50.3131 5.58 50.7891 5.58C51.6851 5.58 52.3944 5.83667 52.9171 6.35C53.4398 6.86333 53.7011 7.57267 53.7011 8.478V11.852C53.7011 11.9827 53.7291 12.0807 53.7851 12.146C53.8411 12.202 53.9298 12.2347 54.0511 12.244V13C53.9484 13.0093 53.8598 13.0187 53.7851 13.028C53.7104 13.0373 53.6544 13.0373 53.6171 13.028C53.3838 13.0187 53.2064 12.944 53.0851 12.804C52.9638 12.664 52.8984 12.5147 52.8891 12.356L52.8751 11.824C52.5484 12.244 52.1238 12.5707 51.6011 12.804C51.0784 13.028 50.5464 13.14 50.0051 13.14C49.5384 13.14 49.1138 13.042 48.7311 12.846C48.3578 12.6407 48.0638 12.37 47.8491 12.034C47.6438 11.6887 47.5411 11.3107 47.5411 10.9ZM52.4271 11.46C52.5298 11.3293 52.6091 11.2033 52.6651 11.082C52.7211 10.9607 52.7491 10.8533 52.7491 10.76V9.696C52.4318 9.57467 52.1004 9.48133 51.7551 9.416C51.4191 9.35067 51.0784 9.318 50.7331 9.318C50.0518 9.318 49.5011 9.45333 49.0811 9.724C48.6611 9.99467 48.4511 10.3633 48.4511 10.83C48.4511 11.1007 48.5211 11.3573 48.6611 11.6C48.8011 11.8333 49.0064 12.0293 49.2771 12.188C49.5478 12.3373 49.8651 12.412 50.2291 12.412C50.6864 12.412 51.1111 12.3233 51.5031 12.146C51.9044 11.9687 52.2124 11.74 52.4271 11.46ZM55.744 13V5.706H60.098V6.56H56.696V13H55.744ZM65.1558 13.14C64.5492 13.14 64.0032 12.9813 63.5178 12.664C63.0418 12.3467 62.6638 11.9547 62.3838 11.488V15.982H61.4318V5.706H62.2858V7.12C62.5752 6.66267 62.9625 6.294 63.4478 6.014C63.9332 5.72467 64.4512 5.58 65.0018 5.58C65.5058 5.58 65.9678 5.68733 66.3878 5.902C66.8078 6.10733 67.1718 6.38733 67.4798 6.742C67.7878 7.09667 68.0258 7.50267 68.1938 7.96C68.3712 8.408 68.4598 8.87467 68.4598 9.36C68.4598 10.0413 68.3198 10.6713 68.0398 11.25C67.7692 11.8193 67.3865 12.2767 66.8918 12.622C66.3972 12.9673 65.8185 13.14 65.1558 13.14ZM64.8898 12.3C65.2912 12.3 65.6505 12.2207 65.9678 12.062C66.2852 11.894 66.5558 11.67 66.7798 11.39C67.0132 11.11 67.1905 10.7973 67.3118 10.452C67.4332 10.0973 67.4938 9.73333 67.4938 9.36C67.4938 8.968 67.4238 8.59467 67.2838 8.24C67.1532 7.88533 66.9618 7.57267 66.7098 7.302C66.4578 7.03133 66.1685 6.81667 65.8418 6.658C65.5152 6.49933 65.1605 6.42 64.7778 6.42C64.5352 6.42 64.2832 6.46667 64.0218 6.56C63.7605 6.65333 63.5085 6.78867 63.2658 6.966C63.0325 7.134 62.8365 7.32533 62.6778 7.54C62.5192 7.75467 62.4212 7.98333 62.3838 8.226V10.466C62.5332 10.8113 62.7338 11.124 62.9858 11.404C63.2378 11.6747 63.5272 11.894 63.8538 12.062C64.1898 12.2207 64.5352 12.3 64.8898 12.3ZM70.6244 16.052C70.4657 16.052 70.3024 16.024 70.1344 15.968C69.9757 15.9213 69.8124 15.8513 69.6444 15.758L69.9944 15.086C70.097 15.142 70.1904 15.1887 70.2744 15.226C70.3677 15.2633 70.4657 15.282 70.5684 15.282C70.811 15.282 71.0397 15.1607 71.2544 14.918C71.469 14.6753 71.6744 14.3207 71.8704 13.854L72.2344 12.944L68.9864 5.706H69.9944L72.6684 12.02L75.1324 5.706H76.0844L72.6124 14.148C72.4257 14.5867 72.2297 14.946 72.0244 15.226C71.819 15.506 71.5997 15.7113 71.3664 15.842C71.133 15.982 70.8857 16.052 70.6244 16.052ZM79.5283 13.084C78.8563 13.084 78.2823 12.958 77.8063 12.706C77.3303 12.4447 76.9663 12.0807 76.7143 11.614L77.4983 11.264C77.6756 11.5907 77.9323 11.8473 78.2683 12.034C78.6043 12.2113 79.0103 12.3 79.4863 12.3C80.0556 12.3 80.5083 12.1693 80.8443 11.908C81.1896 11.6467 81.3623 11.2967 81.3623 10.858C81.3623 10.4567 81.2269 10.1347 80.9563 9.892C80.6856 9.64933 80.3123 9.52333 79.8363 9.514H79.0943V8.856H79.8923C80.0976 8.856 80.2843 8.8 80.4523 8.688C80.6203 8.576 80.7509 8.42667 80.8443 8.24C80.9376 8.05333 80.9843 7.84333 80.9843 7.61C80.9843 7.246 80.8536 6.952 80.5923 6.728C80.3403 6.504 79.9669 6.392 79.4723 6.392C79.0616 6.392 78.7163 6.476 78.4363 6.644C78.1656 6.80267 77.9463 7.04067 77.7783 7.358L77.0503 6.966C77.2649 6.53667 77.5823 6.20067 78.0023 5.958C78.4316 5.71533 78.9309 5.594 79.5003 5.594C79.9669 5.594 80.3729 5.67333 80.7183 5.832C81.0729 5.98133 81.3483 6.20067 81.5443 6.49C81.7496 6.77 81.8523 7.11067 81.8523 7.512C81.8523 7.85733 81.7683 8.17933 81.6003 8.478C81.4323 8.76733 81.1989 8.98667 80.9003 9.136C81.3296 9.26667 81.6609 9.49533 81.8943 9.822C82.1369 10.1487 82.2583 10.5313 82.2583 10.97C82.2583 11.4087 82.1416 11.7867 81.9083 12.104C81.6749 12.4213 81.3529 12.664 80.9423 12.832C80.5316 13 80.0603 13.084 79.5283 13.084ZM83.8397 13V5.72H84.7917V11.712L89.2297 5.706H90.0837V13H89.1317V7.106L84.7637 13H83.8397ZM93.9862 13V6.56H91.3822V5.706H97.5422V6.56H94.9382V13H93.9862ZM98.8241 13V5.706H99.7761V8.282H101.666C102.497 8.282 103.122 8.49667 103.542 8.926C103.971 9.346 104.186 9.90133 104.186 10.592C104.186 11.04 104.093 11.446 103.906 11.81C103.719 12.174 103.444 12.4633 103.08 12.678C102.725 12.8927 102.277 13 101.736 13H98.8241ZM99.7761 12.244H101.61C101.993 12.244 102.301 12.1693 102.534 12.02C102.767 11.8613 102.94 11.6607 103.052 11.418C103.164 11.166 103.22 10.8953 103.22 10.606C103.22 10.326 103.169 10.0693 103.066 9.836C102.973 9.59333 102.805 9.402 102.562 9.262C102.329 9.11267 102.002 9.038 101.582 9.038H99.7761V12.244ZM109.228 13V5.706H112.868C113.279 5.706 113.624 5.79467 113.904 5.972C114.184 6.14 114.394 6.35933 114.534 6.63C114.684 6.90067 114.758 7.19 114.758 7.498C114.758 7.89 114.665 8.24467 114.478 8.562C114.292 8.87 114.021 9.10333 113.666 9.262C114.086 9.38333 114.427 9.60267 114.688 9.92C114.95 10.2373 115.08 10.62 115.08 11.068C115.08 11.46 114.982 11.8007 114.786 12.09C114.6 12.3793 114.338 12.6033 114.002 12.762C113.676 12.9207 113.298 13 112.868 13H109.228ZM110.138 12.314H112.84C113.083 12.314 113.302 12.2533 113.498 12.132C113.704 12.0013 113.862 11.8333 113.974 11.628C114.096 11.4227 114.156 11.208 114.156 10.984C114.156 10.7413 114.1 10.522 113.988 10.326C113.876 10.1207 113.727 9.95733 113.54 9.836C113.354 9.71467 113.139 9.654 112.896 9.654H110.138V12.314ZM110.138 8.996H112.616C112.859 8.996 113.074 8.93067 113.26 8.8C113.447 8.66933 113.592 8.50133 113.694 8.296C113.797 8.09067 113.848 7.876 113.848 7.652C113.848 7.316 113.736 7.022 113.512 6.77C113.298 6.518 113.018 6.392 112.672 6.392H110.138V8.996Z" fill="#C4C5CA"/>
<path d="M46.2016 20.22H47.2636L52.5736 33H51.2416L49.5856 29.004H43.8436L42.2056 33H40.8556L46.2016 20.22ZM49.2976 28.014L46.7236 21.696L44.1136 28.014H49.2976ZM58.9417 33.18C58.1617 33.18 57.4597 32.976 56.8357 32.568C56.2237 32.16 55.7377 31.656 55.3777 31.056V36.834H54.1537V23.622H55.2517V25.44C55.6237 24.852 56.1217 24.378 56.7457 24.018C57.3697 23.646 58.0357 23.46 58.7437 23.46C59.3917 23.46 59.9857 23.598 60.5257 23.874C61.0657 24.138 61.5337 24.498 61.9297 24.954C62.3257 25.41 62.6317 25.932 62.8477 26.52C63.0757 27.096 63.1897 27.696 63.1897 28.32C63.1897 29.196 63.0097 30.006 62.6497 30.75C62.3017 31.482 61.8097 32.07 61.1737 32.514C60.5377 32.958 59.7937 33.18 58.9417 33.18ZM58.5997 32.1C59.1157 32.1 59.5777 31.998 59.9857 31.794C60.3937 31.578 60.7417 31.29 61.0297 30.93C61.3297 30.57 61.5577 30.168 61.7137 29.724C61.8697 29.268 61.9477 28.8 61.9477 28.32C61.9477 27.816 61.8577 27.336 61.6777 26.88C61.5097 26.424 61.2637 26.022 60.9397 25.674C60.6157 25.326 60.2437 25.05 59.8237 24.846C59.4037 24.642 58.9477 24.54 58.4557 24.54C58.1437 24.54 57.8197 24.6 57.4837 24.72C57.1477 24.84 56.8237 25.014 56.5117 25.242C56.2117 25.458 55.9597 25.704 55.7557 25.98C55.5517 26.256 55.4257 26.55 55.3777 26.862V29.742C55.5697 30.186 55.8277 30.588 56.1517 30.948C56.4757 31.296 56.8477 31.578 57.2677 31.794C57.6997 31.998 58.1437 32.1 58.5997 32.1ZM70.0511 33.18C69.2711 33.18 68.5691 32.976 67.9451 32.568C67.3331 32.16 66.8471 31.656 66.4871 31.056V36.834H65.2631V23.622H66.3611V25.44C66.7331 24.852 67.2311 24.378 67.8551 24.018C68.4791 23.646 69.1451 23.46 69.8531 23.46C70.5011 23.46 71.0951 23.598 71.6351 23.874C72.1751 24.138 72.6431 24.498 73.0391 24.954C73.4351 25.41 73.7411 25.932 73.9571 26.52C74.1851 27.096 74.2991 27.696 74.2991 28.32C74.2991 29.196 74.1191 30.006 73.7591 30.75C73.4111 31.482 72.9191 32.07 72.2831 32.514C71.6471 32.958 70.9031 33.18 70.0511 33.18ZM69.7091 32.1C70.2251 32.1 70.6871 31.998 71.0951 31.794C71.5031 31.578 71.8511 31.29 72.1391 30.93C72.4391 30.57 72.6671 30.168 72.8231 29.724C72.9791 29.268 73.0571 28.8 73.0571 28.32C73.0571 27.816 72.9671 27.336 72.7871 26.88C72.6191 26.424 72.3731 26.022 72.0491 25.674C71.7251 25.326 71.3531 25.05 70.9331 24.846C70.5131 24.642 70.0571 24.54 69.5651 24.54C69.2531 24.54 68.9291 24.6 68.5931 24.72C68.2571 24.84 67.9331 25.014 67.6211 25.242C67.3211 25.458 67.0691 25.704 66.8651 25.98C66.6611 26.256 66.5351 26.55 66.4871 26.862V29.742C66.6791 30.186 66.9371 30.588 67.2611 30.948C67.5851 31.296 67.9571 31.578 68.3771 31.794C68.8091 31.998 69.2531 32.1 69.7091 32.1ZM88.6824 22.614C88.5024 22.41 88.2924 22.23 88.0524 22.074C87.8124 21.906 87.5424 21.762 87.2424 21.642C86.9424 21.522 86.6184 21.426 86.2704 21.354C85.9344 21.282 85.5744 21.246 85.1904 21.246C84.0744 21.246 83.2524 21.462 82.7244 21.894C82.2084 22.314 81.9504 22.89 81.9504 23.622C81.9504 24.126 82.0704 24.522 82.3104 24.81C82.5624 25.098 82.9524 25.332 83.4804 25.512C84.0084 25.692 84.6804 25.878 85.4964 26.07C86.4084 26.262 87.1944 26.49 87.8544 26.754C88.5144 27.018 89.0244 27.378 89.3844 27.834C89.7444 28.278 89.9244 28.884 89.9244 29.652C89.9244 30.24 89.8104 30.75 89.5824 31.182C89.3544 31.614 89.0364 31.974 88.6284 32.262C88.2204 32.55 87.7344 32.766 87.1704 32.91C86.6064 33.042 85.9884 33.108 85.3164 33.108C84.6564 33.108 84.0204 33.042 83.4084 32.91C82.8084 32.766 82.2384 32.562 81.6984 32.298C81.1584 32.022 80.6544 31.674 80.1864 31.254L80.8164 30.228C81.0444 30.468 81.3144 30.696 81.6264 30.912C81.9504 31.116 82.3044 31.302 82.6884 31.47C83.0844 31.638 83.5044 31.77 83.9484 31.866C84.4044 31.95 84.8724 31.992 85.3524 31.992C86.3724 31.992 87.1644 31.806 87.7284 31.434C88.3044 31.062 88.5924 30.51 88.5924 29.778C88.5924 29.25 88.4484 28.83 88.1604 28.518C87.8724 28.194 87.4404 27.93 86.8644 27.726C86.2884 27.522 85.5804 27.324 84.7404 27.132C83.8524 26.928 83.1024 26.7 82.4904 26.448C81.8784 26.196 81.4164 25.866 81.1044 25.458C80.8044 25.038 80.6544 24.486 80.6544 23.802C80.6544 23.01 80.8464 22.344 81.2304 21.804C81.6264 21.252 82.1664 20.838 82.8504 20.562C83.5344 20.274 84.3204 20.13 85.2084 20.13C85.7724 20.13 86.2944 20.19 86.7744 20.31C87.2664 20.418 87.7164 20.58 88.1244 20.796C88.5444 21.012 88.9344 21.282 89.2944 21.606L88.6824 22.614ZM96.2357 32.55C96.1397 32.586 95.9897 32.652 95.7857 32.748C95.5817 32.844 95.3357 32.928 95.0477 33C94.7597 33.072 94.4477 33.108 94.1117 33.108C93.7637 33.108 93.4337 33.042 93.1217 32.91C92.8217 32.778 92.5817 32.58 92.4017 32.316C92.2217 32.04 92.1317 31.704 92.1317 31.308V24.594H90.8357V23.622H92.1317V20.454H93.3557V23.622H95.5157V24.594H93.3557V30.966C93.3797 31.302 93.4997 31.554 93.7157 31.722C93.9437 31.89 94.2017 31.974 94.4897 31.974C94.8257 31.974 95.1317 31.92 95.4077 31.812C95.6837 31.692 95.8517 31.608 95.9117 31.56L96.2357 32.55ZM101.603 33.18C100.931 33.18 100.307 33.054 99.7308 32.802C99.1668 32.538 98.6748 32.184 98.2548 31.74C97.8468 31.284 97.5288 30.768 97.3008 30.192C97.0728 29.604 96.9588 28.986 96.9588 28.338C96.9588 27.666 97.0728 27.042 97.3008 26.466C97.5288 25.878 97.8528 25.362 98.2728 24.918C98.6928 24.462 99.1848 24.108 99.7488 23.856C100.325 23.592 100.949 23.46 101.621 23.46C102.293 23.46 102.911 23.592 103.475 23.856C104.039 24.108 104.531 24.462 104.951 24.918C105.371 25.362 105.695 25.878 105.923 26.466C106.151 27.042 106.265 27.666 106.265 28.338C106.265 28.986 106.151 29.604 105.923 30.192C105.695 30.768 105.371 31.284 104.951 31.74C104.543 32.184 104.051 32.538 103.475 32.802C102.911 33.054 102.287 33.18 101.603 33.18ZM98.2008 28.356C98.2008 29.052 98.3508 29.688 98.6508 30.264C98.9628 30.828 99.3768 31.278 99.8928 31.614C100.409 31.938 100.979 32.1 101.603 32.1C102.227 32.1 102.797 31.932 103.313 31.596C103.829 31.26 104.243 30.804 104.555 30.228C104.867 29.64 105.023 29.004 105.023 28.32C105.023 27.624 104.867 26.988 104.555 26.412C104.243 25.836 103.829 25.38 103.313 25.044C102.797 24.708 102.227 24.54 101.603 24.54C100.979 24.54 100.409 24.714 99.8928 25.062C99.3888 25.41 98.9808 25.872 98.6688 26.448C98.3568 27.012 98.2008 27.648 98.2008 28.356ZM112.992 24.702C112.176 24.726 111.456 24.954 110.832 25.386C110.22 25.818 109.788 26.412 109.536 27.168V33H108.312V23.622H109.464V25.872C109.788 25.212 110.214 24.678 110.742 24.27C111.282 23.862 111.852 23.634 112.452 23.586C112.572 23.574 112.674 23.568 112.758 23.568C112.854 23.568 112.932 23.574 112.992 23.586V24.702ZM118.374 33.18C117.702 33.18 117.078 33.054 116.502 32.802C115.926 32.538 115.428 32.184 115.008 31.74C114.588 31.284 114.258 30.762 114.018 30.174C113.79 29.586 113.676 28.956 113.676 28.284C113.676 27.408 113.874 26.604 114.27 25.872C114.678 25.14 115.236 24.558 115.944 24.126C116.652 23.682 117.456 23.46 118.356 23.46C119.28 23.46 120.084 23.682 120.768 24.126C121.464 24.57 122.01 25.158 122.406 25.89C122.802 26.61 123 27.402 123 28.266C123 28.362 123 28.458 123 28.554C123 28.638 122.994 28.704 122.982 28.752H114.954C115.014 29.424 115.2 30.024 115.512 30.552C115.836 31.068 116.25 31.482 116.754 31.794C117.27 32.094 117.828 32.244 118.428 32.244C119.04 32.244 119.616 32.088 120.156 31.776C120.708 31.464 121.092 31.056 121.308 30.552L122.37 30.84C122.178 31.284 121.884 31.686 121.488 32.046C121.092 32.406 120.624 32.688 120.084 32.892C119.556 33.084 118.986 33.18 118.374 33.18ZM114.918 27.87H121.848C121.8 27.186 121.614 26.586 121.29 26.07C120.978 25.554 120.564 25.152 120.048 24.864C119.544 24.564 118.986 24.414 118.374 24.414C117.762 24.414 117.204 24.564 116.7 24.864C116.196 25.152 115.782 25.56 115.458 26.088C115.146 26.604 114.966 27.198 114.918 27.87Z" fill="white"/>
<defs>
<clipPath id="clip0_928_2">
<rect width="24" height="24" fill="white" transform="translate(4 7)"/>
</clipPath>
</defs>
</svg>
