<svg width="10" height="11" viewBox="0 0 10 11" fill="none" xmlns="http://www.w3.org/2000/svg">
<path d="M0 0.581273C0.000264903 0.435047 0.0585388 0.294901 0.16203 0.191597C0.265522 0.0882929 0.405774 0.0302732 0.552 0.0302734L9.452 0.0302734C9.59823 0.0302732 9.73848 0.0882929 9.84197 0.191597C9.94546 0.294901 10.0037 0.435047 10.004 0.581273V9.48127C10.0037 9.62759 9.94549 9.76784 9.84203 9.8713C9.73857 9.97477 9.59832 10.033 9.452 10.0333H0.552C0.405682 10.033 0.265432 9.97477 0.161969 9.8713C0.0585062 9.76784 0.000264352 9.62759 0 9.48127L0 0.581273ZM4.234 3.03827C4.20977 3.02205 4.18259 3.01076 4.15399 3.00505C4.1254 2.99934 4.09597 2.99931 4.06737 3.00498C4.03876 3.01064 4.01156 3.02188 3.9873 3.03806C3.96305 3.05424 3.94222 3.07504 3.926 3.09927C3.90165 3.13565 3.88876 3.1785 3.889 3.22227V6.83627C3.88903 6.87653 3.9 6.91602 3.92074 6.95053C3.94149 6.98503 3.97122 7.01324 4.00676 7.03214C4.04231 7.05104 4.08232 7.05992 4.12253 7.05783C4.16273 7.05574 4.20161 7.04276 4.235 7.02027L6.946 5.21427C6.99517 5.18149 7.02931 5.13054 7.04094 5.0726C7.05256 5.01467 7.04071 4.95448 7.008 4.90527C6.9916 4.88074 6.97053 4.85967 6.946 4.84327L4.235 3.03727L4.234 3.03827Z" fill="#CCCCCC"/>
</svg>
