<svg width="142" height="38" viewBox="0 0 142 38" fill="none" xmlns="http://www.w3.org/2000/svg">
<path fill-rule="evenodd" clip-rule="evenodd" d="M14.576 13.0602C12.6474 12.0183 10.7174 10.979 8.786 9.94216C8.39892 9.7193 7.94452 9.64333 7.506 9.72816C7.13632 9.81196 6.81053 10.0292 6.591 10.3382C6.356 10.6662 6.25 11.0732 6.25 11.5182V27.3402C6.25 27.7282 6.326 28.1372 6.538 28.4802C6.766 28.8492 7.138 29.1162 7.621 29.1602C7.6776 29.1656 7.73463 29.1646 7.791 29.1572C8.141 29.1582 8.473 29.0462 8.781 28.8782L8.891 28.8192L9.506 28.4862C13.597 26.2751 17.6854 24.0591 21.771 21.8382L22.621 21.3752C22.9824 21.179 23.3441 20.9833 23.706 20.7882L23.779 20.7502L23.805 20.7362L23.823 20.7262C24.144 20.5582 24.588 20.1982 24.716 19.6522C24.7921 19.3308 24.7386 18.9924 24.567 18.7102C24.397 18.4242 24.13 18.2102 23.826 18.0492L23.818 18.0452C22.5092 17.3427 21.2035 16.6343 19.901 15.9202C19.8601 15.8979 19.8173 15.8795 19.773 15.8652L18.25 15.0422L14.576 13.0602ZM16.707 18.3502L11.311 13.0052L13.864 14.3822L17.537 16.3642L18.29 16.7702L16.707 18.3502ZM7.75 27.2842V11.5862L15.646 19.4102L7.75 27.2842ZM17.776 19.4072L19.683 17.5112C21.47 18.4862 22.835 19.2272 23.124 19.3772L23.146 19.3892C23.1401 19.3926 23.1341 19.396 23.128 19.3992C22.973 19.4792 22.154 19.9242 20.981 20.5622L19.672 21.2742L17.776 19.4072ZM11.409 25.7532L16.713 20.4662L18.294 22.0232C15.9999 23.2682 13.7049 24.5116 11.409 25.7532Z" fill="black"/>
<path d="M43.1943 13.584C42.5223 13.584 41.9483 13.458 41.4723 13.206C40.9963 12.9447 40.6323 12.5807 40.3803 12.114L41.1643 11.764C41.3416 12.0907 41.5983 12.3473 41.9343 12.534C42.2703 12.7113 42.6763 12.8 43.1523 12.8C43.7216 12.8 44.1743 12.6693 44.5103 12.408C44.8556 12.1467 45.0283 11.7967 45.0283 11.358C45.0283 10.9567 44.8929 10.6347 44.6223 10.392C44.3516 10.1493 43.9783 10.0233 43.5023 10.014H42.7603V9.356H43.5583C43.7636 9.356 43.9503 9.3 44.1183 9.188C44.2863 9.076 44.4169 8.92667 44.5103 8.74C44.6036 8.55333 44.6503 8.34333 44.6503 8.11C44.6503 7.746 44.5196 7.452 44.2583 7.228C44.0063 7.004 43.6329 6.892 43.1383 6.892C42.7276 6.892 42.3823 6.976 42.1023 7.144C41.8316 7.30267 41.6123 7.54067 41.4443 7.858L40.7163 7.466C40.9309 7.03667 41.2483 6.70067 41.6683 6.458C42.0976 6.21533 42.5969 6.094 43.1663 6.094C43.6329 6.094 44.0389 6.17333 44.3843 6.332C44.7389 6.48133 45.0143 6.70067 45.2103 6.99C45.4156 7.27 45.5183 7.61067 45.5183 8.012C45.5183 8.35733 45.4343 8.67933 45.2663 8.978C45.0983 9.26733 44.8649 9.48667 44.5663 9.636C44.9956 9.76667 45.3269 9.99533 45.5603 10.322C45.8029 10.6487 45.9243 11.0313 45.9243 11.47C45.9243 11.9087 45.8076 12.2867 45.5743 12.604C45.3409 12.9213 45.0189 13.164 44.6083 13.332C44.1976 13.5 43.7263 13.584 43.1943 13.584ZM46.9317 11.4C46.9317 10.9427 47.0624 10.5507 47.3237 10.224C47.5851 9.888 47.9444 9.63133 48.4017 9.454C48.8684 9.26733 49.4051 9.174 50.0117 9.174C50.3664 9.174 50.7351 9.202 51.1177 9.258C51.5004 9.314 51.8411 9.398 52.1397 9.51V8.894C52.1397 8.278 51.9577 7.788 51.5937 7.424C51.2297 7.06 50.7257 6.878 50.0817 6.878C49.6897 6.878 49.3024 6.95267 48.9197 7.102C48.5464 7.242 48.1544 7.452 47.7437 7.732L47.3797 7.06C47.8557 6.73333 48.3224 6.49067 48.7797 6.332C49.2371 6.164 49.7037 6.08 50.1797 6.08C51.0757 6.08 51.7851 6.33667 52.3077 6.85C52.8304 7.36333 53.0917 8.07267 53.0917 8.978V12.352C53.0917 12.4827 53.1197 12.5807 53.1757 12.646C53.2317 12.702 53.3204 12.7347 53.4417 12.744V13.5C53.3391 13.5093 53.2504 13.5187 53.1757 13.528C53.1011 13.5373 53.0451 13.5373 53.0077 13.528C52.7744 13.5187 52.5971 13.444 52.4757 13.304C52.3544 13.164 52.2891 13.0147 52.2797 12.856L52.2657 12.324C51.9391 12.744 51.5144 13.0707 50.9917 13.304C50.4691 13.528 49.9371 13.64 49.3957 13.64C48.9291 13.64 48.5044 13.542 48.1217 13.346C47.7484 13.1407 47.4544 12.87 47.2397 12.534C47.0344 12.1887 46.9317 11.8107 46.9317 11.4ZM51.8177 11.96C51.9204 11.8293 51.9997 11.7033 52.0557 11.582C52.1117 11.4607 52.1397 11.3533 52.1397 11.26V10.196C51.8224 10.0747 51.4911 9.98133 51.1457 9.916C50.8097 9.85067 50.4691 9.818 50.1237 9.818C49.4424 9.818 48.8917 9.95333 48.4717 10.224C48.0517 10.4947 47.8417 10.8633 47.8417 11.33C47.8417 11.6007 47.9117 11.8573 48.0517 12.1C48.1917 12.3333 48.3971 12.5293 48.6677 12.688C48.9384 12.8373 49.2557 12.912 49.6197 12.912C50.0771 12.912 50.5017 12.8233 50.8937 12.646C51.2951 12.4687 51.6031 12.24 51.8177 11.96ZM55.1346 13.5V6.206H59.4886V7.06H56.0866V13.5H55.1346ZM64.5465 13.64C63.9398 13.64 63.3938 13.4813 62.9085 13.164C62.4325 12.8467 62.0545 12.4547 61.7745 11.988V16.482H60.8225V6.206H61.6765V7.62C61.9658 7.16267 62.3531 6.794 62.8385 6.514C63.3238 6.22467 63.8418 6.08 64.3925 6.08C64.8965 6.08 65.3585 6.18733 65.7785 6.402C66.1985 6.60733 66.5625 6.88733 66.8705 7.242C67.1785 7.59667 67.4165 8.00267 67.5845 8.46C67.7618 8.908 67.8505 9.37467 67.8505 9.86C67.8505 10.5413 67.7105 11.1713 67.4305 11.75C67.1598 12.3193 66.7771 12.7767 66.2825 13.122C65.7878 13.4673 65.2091 13.64 64.5465 13.64ZM64.2805 12.8C64.6818 12.8 65.0411 12.7207 65.3585 12.562C65.6758 12.394 65.9465 12.17 66.1705 11.89C66.4038 11.61 66.5811 11.2973 66.7025 10.952C66.8238 10.5973 66.8845 10.2333 66.8845 9.86C66.8845 9.468 66.8145 9.09467 66.6745 8.74C66.5438 8.38533 66.3525 8.07267 66.1005 7.802C65.8485 7.53133 65.5591 7.31667 65.2325 7.158C64.9058 6.99933 64.5511 6.92 64.1685 6.92C63.9258 6.92 63.6738 6.96667 63.4125 7.06C63.1511 7.15333 62.8991 7.28867 62.6565 7.466C62.4231 7.634 62.2271 7.82533 62.0685 8.04C61.9098 8.25467 61.8118 8.48333 61.7745 8.726V10.966C61.9238 11.3113 62.1245 11.624 62.3765 11.904C62.6285 12.1747 62.9178 12.394 63.2445 12.562C63.5805 12.7207 63.9258 12.8 64.2805 12.8ZM70.015 16.552C69.8563 16.552 69.693 16.524 69.525 16.468C69.3663 16.4213 69.203 16.3513 69.035 16.258L69.385 15.586C69.4877 15.642 69.581 15.6887 69.665 15.726C69.7583 15.7633 69.8563 15.782 69.959 15.782C70.2017 15.782 70.4303 15.6607 70.645 15.418C70.8597 15.1753 71.065 14.8207 71.261 14.354L71.625 13.444L68.377 6.206H69.385L72.059 12.52L74.523 6.206H75.475L72.003 14.648C71.8163 15.0867 71.6203 15.446 71.415 15.726C71.2097 16.006 70.9903 16.2113 70.757 16.342C70.5237 16.482 70.2763 16.552 70.015 16.552ZM78.9189 13.584C78.2469 13.584 77.6729 13.458 77.1969 13.206C76.7209 12.9447 76.3569 12.5807 76.1049 12.114L76.8889 11.764C77.0662 12.0907 77.3229 12.3473 77.6589 12.534C77.9949 12.7113 78.4009 12.8 78.8769 12.8C79.4462 12.8 79.8989 12.6693 80.2349 12.408C80.5802 12.1467 80.7529 11.7967 80.7529 11.358C80.7529 10.9567 80.6175 10.6347 80.3469 10.392C80.0762 10.1493 79.7029 10.0233 79.2269 10.014H78.4849V9.356H79.2829C79.4882 9.356 79.6749 9.3 79.8429 9.188C80.0109 9.076 80.1415 8.92667 80.2349 8.74C80.3282 8.55333 80.3749 8.34333 80.3749 8.11C80.3749 7.746 80.2442 7.452 79.9829 7.228C79.7309 7.004 79.3575 6.892 78.8629 6.892C78.4522 6.892 78.1069 6.976 77.8269 7.144C77.5562 7.30267 77.3369 7.54067 77.1689 7.858L76.4409 7.466C76.6555 7.03667 76.9729 6.70067 77.3929 6.458C77.8222 6.21533 78.3215 6.094 78.8909 6.094C79.3575 6.094 79.7635 6.17333 80.1089 6.332C80.4635 6.48133 80.7389 6.70067 80.9349 6.99C81.1402 7.27 81.2429 7.61067 81.2429 8.012C81.2429 8.35733 81.1589 8.67933 80.9909 8.978C80.8229 9.26733 80.5895 9.48667 80.2909 9.636C80.7202 9.76667 81.0515 9.99533 81.2849 10.322C81.5275 10.6487 81.6489 11.0313 81.6489 11.47C81.6489 11.9087 81.5322 12.2867 81.2989 12.604C81.0655 12.9213 80.7435 13.164 80.3329 13.332C79.9222 13.5 79.4509 13.584 78.9189 13.584ZM83.2303 13.5V6.22H84.1823V12.212L88.6203 6.206H89.4743V13.5H88.5223V7.606L84.1543 13.5H83.2303ZM93.3768 13.5V7.06H90.7728V6.206H96.9328V7.06H94.3288V13.5H93.3768ZM98.2147 13.5V6.206H99.1667V8.782H101.057C101.887 8.782 102.513 8.99667 102.933 9.426C103.362 9.846 103.577 10.4013 103.577 11.092C103.577 11.54 103.483 11.946 103.297 12.31C103.11 12.674 102.835 12.9633 102.471 13.178C102.116 13.3927 101.668 13.5 101.127 13.5H98.2147ZM99.1667 12.744H101.001C101.383 12.744 101.691 12.6693 101.925 12.52C102.158 12.3613 102.331 12.1607 102.443 11.918C102.555 11.666 102.611 11.3953 102.611 11.106C102.611 10.826 102.559 10.5693 102.457 10.336C102.363 10.0933 102.195 9.902 101.953 9.762C101.719 9.61267 101.393 9.538 100.973 9.538H99.1667V12.744ZM108.619 13.5V6.206H112.259C112.67 6.206 113.015 6.29467 113.295 6.472C113.575 6.64 113.785 6.85933 113.925 7.13C114.074 7.40067 114.149 7.69 114.149 7.998C114.149 8.39 114.056 8.74467 113.869 9.062C113.682 9.37 113.412 9.60333 113.057 9.762C113.477 9.88333 113.818 10.1027 114.079 10.42C114.34 10.7373 114.471 11.12 114.471 11.568C114.471 11.96 114.373 12.3007 114.177 12.59C113.99 12.8793 113.729 13.1033 113.393 13.262C113.066 13.4207 112.688 13.5 112.259 13.5H108.619ZM109.529 12.814H112.231C112.474 12.814 112.693 12.7533 112.889 12.632C113.094 12.5013 113.253 12.3333 113.365 12.128C113.486 11.9227 113.547 11.708 113.547 11.484C113.547 11.2413 113.491 11.022 113.379 10.826C113.267 10.6207 113.118 10.4573 112.931 10.336C112.744 10.2147 112.53 10.154 112.287 10.154H109.529V12.814ZM109.529 9.496H112.007C112.25 9.496 112.464 9.43067 112.651 9.3C112.838 9.16933 112.982 9.00133 113.085 8.796C113.188 8.59067 113.239 8.376 113.239 8.152C113.239 7.816 113.127 7.522 112.903 7.27C112.688 7.018 112.408 6.892 112.063 6.892H109.529V9.496Z" fill="black"/>
<path d="M46.7623 33.59C45.9103 33.59 45.1183 33.41 44.3863 33.05C43.6543 32.678 43.0183 32.18 42.4783 31.556C41.9383 30.932 41.5183 30.236 41.2183 29.468C40.9303 28.7 40.7863 27.908 40.7863 27.092C40.7863 26.228 40.9303 25.412 41.2183 24.644C41.5183 23.864 41.9323 23.174 42.4603 22.574C42.9883 21.974 43.6123 21.5 44.3323 21.152C45.0523 20.804 45.8383 20.63 46.6903 20.63C47.9503 20.63 48.9763 20.888 49.7683 21.404C50.5603 21.92 51.1603 22.592 51.5683 23.42L50.5963 24.068C50.1883 23.276 49.6423 22.694 48.9583 22.322C48.2743 21.95 47.5123 21.764 46.6723 21.764C45.9643 21.764 45.3223 21.914 44.7463 22.214C44.1823 22.514 43.6963 22.916 43.2883 23.42C42.8803 23.924 42.5683 24.494 42.3523 25.13C42.1483 25.766 42.0463 26.426 42.0463 27.11C42.0463 27.83 42.1663 28.514 42.4063 29.162C42.6463 29.798 42.9883 30.368 43.4323 30.872C43.8763 31.364 44.3863 31.754 44.9623 32.042C45.5503 32.318 46.1803 32.456 46.8523 32.456C47.6323 32.456 48.3703 32.264 49.0663 31.88C49.7623 31.484 50.4283 30.878 51.0643 30.062V31.394C49.8523 32.858 48.4183 33.59 46.7623 33.59ZM50.8663 28.19H48.0223V27.218H51.9283V33.5H50.8663V28.19ZM58.261 33.68C57.589 33.68 56.965 33.554 56.389 33.302C55.825 33.038 55.333 32.684 54.913 32.24C54.505 31.784 54.187 31.268 53.959 30.692C53.731 30.104 53.617 29.486 53.617 28.838C53.617 28.166 53.731 27.542 53.959 26.966C54.187 26.378 54.511 25.862 54.931 25.418C55.351 24.962 55.843 24.608 56.407 24.356C56.983 24.092 57.607 23.96 58.279 23.96C58.951 23.96 59.569 24.092 60.133 24.356C60.697 24.608 61.189 24.962 61.609 25.418C62.029 25.862 62.353 26.378 62.581 26.966C62.809 27.542 62.923 28.166 62.923 28.838C62.923 29.486 62.809 30.104 62.581 30.692C62.353 31.268 62.029 31.784 61.609 32.24C61.201 32.684 60.709 33.038 60.133 33.302C59.569 33.554 58.945 33.68 58.261 33.68ZM54.859 28.856C54.859 29.552 55.009 30.188 55.309 30.764C55.621 31.328 56.035 31.778 56.551 32.114C57.067 32.438 57.637 32.6 58.261 32.6C58.885 32.6 59.455 32.432 59.971 32.096C60.487 31.76 60.901 31.304 61.213 30.728C61.525 30.14 61.681 29.504 61.681 28.82C61.681 28.124 61.525 27.488 61.213 26.912C60.901 26.336 60.487 25.88 59.971 25.544C59.455 25.208 58.885 25.04 58.261 25.04C57.637 25.04 57.067 25.214 56.551 25.562C56.047 25.91 55.639 26.372 55.327 26.948C55.015 27.512 54.859 28.148 54.859 28.856ZM68.9661 33.68C68.2941 33.68 67.6701 33.554 67.0941 33.302C66.5301 33.038 66.0381 32.684 65.6181 32.24C65.2101 31.784 64.8921 31.268 64.6641 30.692C64.4361 30.104 64.3221 29.486 64.3221 28.838C64.3221 28.166 64.4361 27.542 64.6641 26.966C64.8921 26.378 65.2161 25.862 65.6361 25.418C66.0561 24.962 66.5481 24.608 67.1121 24.356C67.6881 24.092 68.3121 23.96 68.9841 23.96C69.6561 23.96 70.2741 24.092 70.8381 24.356C71.4021 24.608 71.8941 24.962 72.3141 25.418C72.7341 25.862 73.0581 26.378 73.2861 26.966C73.5141 27.542 73.6281 28.166 73.6281 28.838C73.6281 29.486 73.5141 30.104 73.2861 30.692C73.0581 31.268 72.7341 31.784 72.3141 32.24C71.9061 32.684 71.4141 33.038 70.8381 33.302C70.2741 33.554 69.6501 33.68 68.9661 33.68ZM65.5641 28.856C65.5641 29.552 65.7141 30.188 66.0141 30.764C66.3261 31.328 66.7401 31.778 67.2561 32.114C67.7721 32.438 68.3421 32.6 68.9661 32.6C69.5901 32.6 70.1601 32.432 70.6761 32.096C71.1921 31.76 71.6061 31.304 71.9181 30.728C72.2301 30.14 72.3861 29.504 72.3861 28.82C72.3861 28.124 72.2301 27.488 71.9181 26.912C71.6061 26.336 71.1921 25.88 70.6761 25.544C70.1601 25.208 69.5901 25.04 68.9661 25.04C68.3421 25.04 67.7721 25.214 67.2561 25.562C66.7521 25.91 66.3441 26.372 66.0321 26.948C65.7201 27.512 65.5641 28.148 65.5641 28.856ZM79.4372 33.626C78.8012 33.626 78.2132 33.494 77.6732 33.23C77.1332 32.966 76.6652 32.612 76.2692 32.168C75.8852 31.712 75.5852 31.196 75.3692 30.62C75.1532 30.044 75.0452 29.45 75.0452 28.838C75.0452 28.178 75.1472 27.56 75.3512 26.984C75.5672 26.396 75.8672 25.874 76.2512 25.418C76.6472 24.962 77.1092 24.608 77.6372 24.356C78.1652 24.092 78.7532 23.96 79.4012 23.96C80.2052 23.96 80.9012 24.164 81.4892 24.572C82.0892 24.98 82.5932 25.484 83.0012 26.084V24.122H84.0992V33.536C84.0992 34.4 83.8892 35.126 83.4692 35.714C83.0612 36.314 82.5032 36.764 81.7952 37.064C81.0992 37.364 80.3372 37.514 79.5092 37.514C78.4412 37.514 77.5772 37.322 76.9172 36.938C76.2572 36.554 75.7172 36.038 75.2972 35.39L76.0532 34.796C76.4252 35.384 76.9172 35.822 77.5292 36.11C78.1532 36.398 78.8132 36.542 79.5092 36.542C80.1212 36.542 80.6792 36.428 81.1832 36.2C81.6992 35.984 82.1072 35.654 82.4072 35.21C82.7192 34.766 82.8752 34.208 82.8752 33.536V31.682C82.5152 32.27 82.0232 32.744 81.3992 33.104C80.7752 33.452 80.1212 33.626 79.4372 33.626ZM79.7792 32.6C80.1512 32.6 80.5052 32.534 80.8412 32.402C81.1892 32.27 81.5072 32.096 81.7952 31.88C82.0832 31.652 82.3232 31.4 82.5152 31.124C82.7072 30.848 82.8272 30.566 82.8752 30.278V27.38C82.6952 26.924 82.4372 26.522 82.1012 26.174C81.7652 25.814 81.3812 25.538 80.9492 25.346C80.5292 25.142 80.0912 25.04 79.6352 25.04C79.1072 25.04 78.6332 25.154 78.2132 25.382C77.8052 25.598 77.4572 25.892 77.1692 26.264C76.8932 26.624 76.6772 27.032 76.5212 27.488C76.3652 27.944 76.2872 28.4 76.2872 28.856C76.2872 29.36 76.3772 29.84 76.5572 30.296C76.7372 30.74 76.9832 31.142 77.2952 31.502C77.6192 31.85 77.9912 32.12 78.4112 32.312C78.8432 32.504 79.2992 32.6 79.7792 32.6ZM86.8561 20.36H88.0801V31.376C88.0801 31.844 88.1641 32.15 88.3321 32.294C88.5001 32.438 88.7041 32.51 88.9441 32.51C89.1601 32.51 89.3761 32.486 89.5921 32.438C89.8081 32.39 89.9941 32.342 90.1501 32.294L90.3661 33.284C90.1381 33.38 89.8561 33.458 89.5201 33.518C89.1961 33.578 88.9141 33.608 88.6741 33.608C88.1221 33.608 87.6781 33.446 87.3421 33.122C87.0181 32.798 86.8561 32.354 86.8561 31.79V20.36ZM95.7564 33.68C95.0844 33.68 94.4604 33.554 93.8844 33.302C93.3084 33.038 92.8104 32.684 92.3904 32.24C91.9704 31.784 91.6404 31.262 91.4004 30.674C91.1724 30.086 91.0584 29.456 91.0584 28.784C91.0584 27.908 91.2564 27.104 91.6524 26.372C92.0604 25.64 92.6184 25.058 93.3264 24.626C94.0344 24.182 94.8384 23.96 95.7384 23.96C96.6624 23.96 97.4664 24.182 98.1504 24.626C98.8464 25.07 99.3924 25.658 99.7884 26.39C100.184 27.11 100.382 27.902 100.382 28.766C100.382 28.862 100.382 28.958 100.382 29.054C100.382 29.138 100.376 29.204 100.364 29.252H92.3364C92.3964 29.924 92.5824 30.524 92.8944 31.052C93.2184 31.568 93.6324 31.982 94.1364 32.294C94.6524 32.594 95.2104 32.744 95.8104 32.744C96.4224 32.744 96.9984 32.588 97.5384 32.276C98.0904 31.964 98.4744 31.556 98.6904 31.052L99.7524 31.34C99.5604 31.784 99.2664 32.186 98.8704 32.546C98.4744 32.906 98.0064 33.188 97.4664 33.392C96.9384 33.584 96.3684 33.68 95.7564 33.68ZM92.3004 28.37H99.2304C99.1824 27.686 98.9964 27.086 98.6724 26.57C98.3604 26.054 97.9464 25.652 97.4304 25.364C96.9264 25.064 96.3684 24.914 95.7564 24.914C95.1444 24.914 94.5864 25.064 94.0824 25.364C93.5784 25.652 93.1644 26.06 92.8404 26.588C92.5284 27.104 92.3484 27.698 92.3004 28.37ZM107.111 33.5V20.72H112.403C112.955 20.72 113.459 20.834 113.915 21.062C114.383 21.29 114.785 21.602 115.121 21.998C115.457 22.382 115.721 22.814 115.913 23.294C116.105 23.762 116.201 24.242 116.201 24.734C116.201 25.43 116.045 26.09 115.733 26.714C115.433 27.326 115.007 27.824 114.455 28.208C113.903 28.592 113.255 28.784 112.511 28.784H108.371V33.5H107.111ZM108.371 27.668H112.457C112.961 27.668 113.399 27.53 113.771 27.254C114.143 26.978 114.431 26.618 114.635 26.174C114.839 25.73 114.941 25.25 114.941 24.734C114.941 24.206 114.821 23.72 114.581 23.276C114.341 22.832 114.023 22.484 113.627 22.232C113.243 21.968 112.817 21.836 112.349 21.836H108.371V27.668ZM118.11 20.36H119.334V31.376C119.334 31.844 119.418 32.15 119.586 32.294C119.754 32.438 119.958 32.51 120.198 32.51C120.414 32.51 120.63 32.486 120.846 32.438C121.062 32.39 121.248 32.342 121.404 32.294L121.62 33.284C121.392 33.38 121.11 33.458 120.774 33.518C120.45 33.578 120.168 33.608 119.928 33.608C119.376 33.608 118.932 33.446 118.596 33.122C118.272 32.798 118.11 32.354 118.11 31.79V20.36ZM122.204 30.8C122.204 30.212 122.372 29.708 122.708 29.288C123.044 28.856 123.506 28.526 124.094 28.298C124.694 28.058 125.384 27.938 126.164 27.938C126.62 27.938 127.094 27.974 127.586 28.046C128.078 28.118 128.516 28.226 128.9 28.37V27.578C128.9 26.786 128.666 26.156 128.198 25.688C127.73 25.22 127.082 24.986 126.254 24.986C125.75 24.986 125.252 25.082 124.76 25.274C124.28 25.454 123.776 25.724 123.248 26.084L122.78 25.22C123.392 24.8 123.992 24.488 124.58 24.284C125.168 24.068 125.768 23.96 126.38 23.96C127.532 23.96 128.444 24.29 129.116 24.95C129.788 25.61 130.124 26.522 130.124 27.686V32.024C130.124 32.192 130.16 32.318 130.232 32.402C130.304 32.474 130.418 32.516 130.574 32.528V33.5C130.442 33.512 130.328 33.524 130.232 33.536C130.136 33.548 130.064 33.548 130.016 33.536C129.716 33.524 129.488 33.428 129.332 33.248C129.176 33.068 129.092 32.876 129.08 32.672L129.062 31.988C128.642 32.528 128.096 32.948 127.424 33.248C126.752 33.536 126.068 33.68 125.372 33.68C124.772 33.68 124.226 33.554 123.734 33.302C123.254 33.038 122.876 32.69 122.6 32.258C122.336 31.814 122.204 31.328 122.204 30.8ZM128.486 31.52C128.618 31.352 128.72 31.19 128.792 31.034C128.864 30.878 128.9 30.74 128.9 30.62V29.252C128.492 29.096 128.066 28.976 127.622 28.892C127.19 28.808 126.752 28.766 126.308 28.766C125.432 28.766 124.724 28.94 124.184 29.288C123.644 29.636 123.374 30.11 123.374 30.71C123.374 31.058 123.464 31.388 123.644 31.7C123.824 32 124.088 32.252 124.436 32.456C124.784 32.648 125.192 32.744 125.66 32.744C126.248 32.744 126.794 32.63 127.298 32.402C127.814 32.174 128.21 31.88 128.486 31.52ZM133.028 36.38C133.196 36.392 133.358 36.398 133.514 36.398C133.67 36.41 133.784 36.404 133.856 36.38C134 36.356 134.138 36.272 134.27 36.128C134.402 35.984 134.558 35.708 134.738 35.3C134.918 34.892 135.17 34.292 135.494 33.5L131.408 24.122H132.704L136.142 32.24L139.31 24.122H140.534L135.674 36.218C135.59 36.446 135.464 36.656 135.296 36.848C135.128 37.052 134.918 37.208 134.666 37.316C134.426 37.436 134.126 37.502 133.766 37.514C133.658 37.526 133.544 37.526 133.424 37.514C133.316 37.514 133.184 37.502 133.028 37.478V36.38Z" fill="black"/>
</svg>
