<svg width="18.000000" height="4.000000" viewBox="0 0 18 4" fill="none" xmlns="http://www.w3.org/2000/svg" xmlns:xlink="http://www.w3.org/1999/xlink">
	<desc>
			Created with Pixso.
	</desc>
	<defs>
		<clipPath id="clip1_5720">
			<rect id="more-social.svg" rx="-0.500000" width="17.000000" height="3.000000" transform="translate(0.500000 0.500000)" fill="white" fill-opacity="0"/>
		</clipPath>
	</defs>
	<g clip-path="url(#clip1_5720)">
		<path id="Vector" d="M1.99 3.05e-5C2.26 -0.01 2.53 0.04 2.77 0.13C3.02 0.23 3.25 0.38 3.44 0.56C3.63 0.75 3.78 0.97 3.88 1.22C3.99 1.46 4.04 1.73 4.04 1.99C4.04 2.26 3.99 2.52 3.88 2.77C3.78 3.02 3.63 3.24 3.44 3.42C3.25 3.61 3.02 3.76 2.77 3.85C2.53 3.95 2.26 4 2 3.99C1.47 3.98 0.98 3.77 0.61 3.39C0.24 3.02 0.04 2.52 0.04 2C0.04 1.47 0.24 0.97 0.61 0.6C0.97 0.22 1.47 0.01 1.99 3.05e-5ZM8.99 3.05e-5C9.26 -0.01 9.53 0.04 9.77 0.13C10.02 0.23 10.25 0.38 10.44 0.56C10.63 0.75 10.78 0.97 10.88 1.22C10.99 1.46 11.04 1.73 11.04 1.99C11.04 2.26 10.99 2.52 10.88 2.77C10.78 3.02 10.63 3.24 10.44 3.42C10.25 3.61 10.02 3.76 9.77 3.85C9.53 3.95 9.26 4 9 3.99C8.47 3.98 7.98 3.77 7.61 3.39C7.24 3.02 7.04 2.52 7.04 2C7.04 1.47 7.24 0.97 7.61 0.6C7.97 0.22 8.47 0.01 8.99 3.05e-5ZM15.99 3.05e-5C16.26 -0.01 16.53 0.04 16.77 0.13C17.02 0.23 17.25 0.38 17.44 0.56C17.63 0.75 17.78 0.97 17.88 1.22C17.99 1.46 18.04 1.73 18.04 1.99C18.04 2.26 17.99 2.52 17.88 2.77C17.78 3.02 17.63 3.24 17.44 3.42C17.25 3.61 17.02 3.76 16.77 3.85C16.53 3.95 16.26 4 16 3.99C15.47 3.98 14.98 3.77 14.61 3.39C14.24 3.02 14.04 2.52 14.04 2C14.04 1.47 14.24 0.97 14.61 0.6C14.98 0.22 15.47 0.01 15.99 3.05e-5Z" fill="#A7ADB7" fill-opacity="0.700000" fill-rule="evenodd"/>
	</g>
</svg>
