<svg width="8" height="14" viewBox="0 0 8 14" fill="none" xmlns="http://www.w3.org/2000/svg">
<path d="M1.06378 13.4959C0.920765 13.4963 0.780853 13.4542 0.661795 13.375C0.542736 13.2957 0.449895 13.1829 0.395047 13.0508C0.340199 12.9187 0.325815 12.7733 0.35372 12.6331C0.381625 12.4928 0.450561 12.364 0.551785 12.2629L5.83379 6.99095L0.551785 1.72095C0.425586 1.58323 0.3575 1.40206 0.361756 1.21532C0.366012 1.02857 0.442282 0.850693 0.574625 0.718867C0.706967 0.587042 0.885139 0.511468 1.0719 0.507942C1.25866 0.504415 1.43956 0.57321 1.57678 0.699946L7.37079 6.48095C7.43797 6.54801 7.49127 6.62766 7.52764 6.71534C7.564 6.80303 7.58272 6.89702 7.58272 6.99195C7.58272 7.08687 7.564 7.18087 7.52764 7.26855C7.49127 7.35623 7.43797 7.43588 7.37079 7.50295L1.57678 13.2849C1.50926 13.3519 1.4292 13.405 1.34118 13.441C1.25316 13.477 1.1589 13.4964 1.06378 13.4959Z" fill="black"/>
</svg>
