<svg width="10" height="10" viewBox="0 0 10 10" fill="none" xmlns="http://www.w3.org/2000/svg">
<path d="M6 0.0302734V9.03027H0.5C0.367392 9.03027 0.240215 8.9776 0.146447 8.88383C0.0526784 8.79006 0 8.66288 0 8.53027V5.78027C0.331521 5.78027 0.649463 5.64858 0.883883 5.41416C1.1183 5.17974 1.25 4.86179 1.25 4.53027C1.25 4.19875 1.1183 3.88081 0.883883 3.64639C0.649463 3.41197 0.331521 3.28027 0 3.28027L0 0.530273C0 0.397665 0.0526784 0.270488 0.146447 0.17672C0.240215 0.0829519 0.367392 0.0302734 0.5 0.0302734L6 0.0302734ZM7 0.0302734H9.5C9.63261 0.0302734 9.75979 0.0829519 9.85355 0.17672C9.94732 0.270488 10 0.397665 10 0.530273V3.28027C9.66848 3.28027 9.35054 3.41197 9.11612 3.64639C8.8817 3.88081 8.75 4.19875 8.75 4.53027C8.75 4.86179 8.8817 5.17974 9.11612 5.41416C9.35054 5.64858 9.66848 5.78027 10 5.78027V8.53027C10 8.66288 9.94732 8.79006 9.85355 8.88383C9.75979 8.9776 9.63261 9.03027 9.5 9.03027H7V0.0302734Z" fill="#CCCCCC"/>
</svg>
