<svg width="21" height="16" viewBox="0 0 21 16" fill="none" xmlns="http://www.w3.org/2000/svg">
<g clip-path="url(#clip0_874_11590)">
<g clip-path="url(#clip1_874_11590)">
<path d="M12.52 2.03702e-05L12.587 0.00202037L12.654 0.00602037C13.474 0.0790204 14.079 0.79002 14.004 1.59302L13.608 5.86702L17.516 5.61102C17.803 5.59302 18.092 5.61102 18.374 5.66602C20.143 6.01302 21.29 7.69902 20.936 9.43202L20.12 13.428C19.815 14.923 18.475 16 16.918 16H13.006C11.6033 16.0002 10.2094 15.7784 8.876 15.343L7.62 14.933V5.33302L10.046 1.37202C10.3067 0.950926 10.671 0.6037 11.1041 0.363504C11.5373 0.123308 12.0247 -0.00183668 12.52 2.03702e-05ZM3.442 4.26702C3.97243 4.26702 4.48114 4.47773 4.85621 4.85281C5.23129 5.22788 5.442 5.73659 5.442 6.26702V14C5.442 14.5305 5.23129 15.0392 4.85621 15.4142C4.48114 15.7893 3.97243 16 3.442 16H2C1.46957 16 0.960859 15.7893 0.585786 15.4142C0.210714 15.0392 0 14.5305 0 14V6.26702C0 5.73659 0.210714 5.22788 0.585786 4.85281C0.960859 4.47773 1.46957 4.26702 2 4.26702H3.443H3.442Z" fill="#A7ADB7" fill-opacity="0.7"/>
</g>
</g>
<defs>
<clipPath id="clip0_874_11590">
<rect width="21" height="16" fill="white"/>
</clipPath>
<clipPath id="clip1_874_11590">
<rect width="21" height="16" fill="white"/>
</clipPath>
</defs>
</svg>
