<svg width="18" height="17" viewBox="0 0 18 17" fill="none" xmlns="http://www.w3.org/2000/svg">
<g clip-path="url(#clip0_914_220)">
<g clip-path="url(#clip1_914_220)">
<path d="M14.2914 0.944336C15.6996 0.944336 16.8414 2.072 16.8414 3.46317V11.0263L16.8622 11.0187V14.8683C16.8622 15.3311 16.4825 15.7079 16.0122 15.7079C15.7876 15.7077 15.572 15.6195 15.4115 15.4623L13.4622 13.5366H3.24141C1.83324 13.5366 0.691406 12.4089 0.691406 11.0187V3.46317C0.691406 2.072 1.83324 0.944336 3.24141 0.944336H14.2914ZM4.51641 5.98106C3.81185 5.98106 3.24141 6.54489 3.24141 7.24095C3.24141 7.93606 3.81185 8.49989 4.51641 8.49989C5.22096 8.49989 5.79141 7.93606 5.79141 7.24095C5.79141 6.54489 5.22096 5.98106 4.51641 5.98106ZM8.76641 5.98106C8.06185 5.98106 7.49141 6.54489 7.49141 7.24095C7.49141 7.93606 8.06185 8.49989 8.76641 8.49989C9.47096 8.49989 10.0414 7.93606 10.0414 7.24095C10.0414 6.54489 9.47096 5.98106 8.76641 5.98106ZM13.0164 5.98106C12.3119 5.98106 11.7414 6.54489 11.7414 7.24095C11.7414 7.93606 12.3119 8.49989 13.0164 8.49989C13.721 8.49989 14.2914 7.93606 14.2914 7.24095C14.2914 6.54489 13.721 5.98106 13.0164 5.98106Z" fill="#A7ADB7" fill-opacity="0.7"/>
</g>
</g>
<defs>
<clipPath id="clip0_914_220">
<rect width="17" height="16" fill="white" transform="translate(0.691406 0.5)"/>
</clipPath>
<clipPath id="clip1_914_220">
<rect width="17" height="15.1111" fill="white" transform="translate(0.691406 0.944336)"/>
</clipPath>
</defs>
</svg>
