<svg width="48.000000" height="55.058411" viewBox="0 0 48 55.0584" fill="none" xmlns="http://www.w3.org/2000/svg" xmlns:xlink="http://www.w3.org/1999/xlink">
	<desc>
			Created with Pixso.
	</desc>
	<defs>
		<filter id="filter_1_5413_dd" x="15.882812" y="38.117188" width="16.941162" height="16.941223" filterUnits="userSpaceOnUse" color-interpolation-filters="sRGB">
			<feFlood flood-opacity="0" result="BackgroundImageFix"/>
			<feColorMatrix in="SourceAlpha" type="matrix" values="0 0 0 0 0 0 0 0 0 0 0 0 0 0 0 0 0 0 127 0" result="hardAlpha"/>
			<feOffset dx="0" dy="0"/>
			<feGaussianBlur stdDeviation="2.35294"/>
			<feComposite in2="hardAlpha" operator="out" k2="-1" k3="1"/>
			<feColorMatrix type="matrix" values="0 0 0 0 1 0 0 0 0 0.27059 0 0 0 0 0.22745 0 0 0 0.7 0"/>
			<feBlend mode="normal" in2="BackgroundImageFix" result="effect_dropShadow_1"/>
			<feBlend mode="normal" in="SourceGraphic" in2="effect_dropShadow_1" result="shape"/>
		</filter>
		<filter id="filter_1_5416_dd" x="0.000000" y="0.000000" width="48.000000" height="49.411804" filterUnits="userSpaceOnUse" color-interpolation-filters="sRGB">
			<feFlood flood-opacity="0" result="BackgroundImageFix"/>
			<feColorMatrix in="SourceAlpha" type="matrix" values="0 0 0 0 0 0 0 0 0 0 0 0 0 0 0 0 0 0 127 0" result="hardAlpha"/>
			<feOffset dx="0" dy="0"/>
			<feGaussianBlur stdDeviation="2.35294"/>
			<feComposite in2="hardAlpha" operator="out" k2="-1" k3="1"/>
			<feColorMatrix type="matrix" values="0 0 0 0 1 0 0 0 0 0.27059 0 0 0 0 0.22745 0 0 0 0.7 0"/>
			<feBlend mode="normal" in2="BackgroundImageFix" result="effect_dropShadow_1"/>
			<feBlend mode="normal" in="SourceGraphic" in2="effect_dropShadow_1" result="shape"/>
		</filter>
	</defs>
	<g filter="url(#filter_1_5413_dd)">
		<path id="Vector" d="M25.76 46.58C25.76 47.36 25.13 47.99 24.35 47.99C23.57 47.99 22.94 47.36 22.94 46.58C22.94 45.8 23.57 45.17 24.35 45.17C25.13 45.17 25.76 45.8 25.76 46.58Z" fill="#000000" fill-opacity="1.000000" fill-rule="evenodd"/>
	</g>
	<path id="Vector" d="M25.76 46.58C25.76 47.36 25.13 47.99 24.35 47.99C23.57 47.99 22.94 47.36 22.94 46.58C22.94 45.8 23.57 45.17 24.35 45.17C25.13 45.17 25.76 45.8 25.76 46.58Z" fill="#FF453A" fill-opacity="1.000000" fill-rule="evenodd"/>
	<g filter="url(#filter_1_5416_dd)">
		<path id="Vector" d="M26.23 39.34C25.02 40.03 24.4 42.27 24.4 42.27C24.4 42.27 24.09 42.49 23.99 42.19C23.46 40.47 22.27 39.39 22.27 39.39C13.72 38.57 7.05 31.66 7.05 23.26C7.05 14.31 14.64 7.05 23.99 7.05C33.35 7.05 40.94 14.31 40.94 23.26C40.94 31.5 34.53 38.29 26.23 39.34Z" fill="#000000" fill-opacity="1.000000" fill-rule="nonzero"/>
	</g>
	<path id="Vector" d="M26.23 39.34C25.02 40.03 24.4 42.27 24.4 42.27C24.4 42.27 24.09 42.49 23.99 42.19C23.46 40.47 22.27 39.39 22.27 39.39C13.72 38.57 7.05 31.66 7.05 23.26C7.05 14.31 14.64 7.05 23.99 7.05C33.35 7.05 40.94 14.31 40.94 23.26C40.94 31.5 34.53 38.29 26.23 39.34Z" fill="#FF453A" fill-opacity="1.000000" fill-rule="nonzero"/>
</svg>
