<svg width="17" height="17" viewBox="0 0 17 17" fill="none" xmlns="http://www.w3.org/2000/svg">
<g clip-path="url(#clip0_914_215)">
<path opacity="0.7" fill-rule="evenodd" clip-rule="evenodd" d="M13.7228 8.78992L13.1298 12.3139L13.1278 12.3259C13.0858 12.5464 12.9584 12.7413 12.7734 12.8683C12.5883 12.9953 12.3606 13.044 12.1398 13.0039L2.47582 11.2639C2.32035 11.2359 2.17578 11.1651 2.05831 11.0595C1.94085 10.9538 1.85515 10.8175 1.81082 10.6659L0.259819 5.28792C0.22458 5.16201 0.219007 5.02964 0.243536 4.90121C0.268065 4.77278 0.322029 4.65178 0.401192 4.54772C0.480355 4.44365 0.582561 4.35935 0.699787 4.30144C0.817013 4.24352 0.946067 4.21357 1.07682 4.21392H12.7438L13.2648 2.00092C13.3172 1.78147 13.4422 1.58616 13.6195 1.44673C13.7969 1.30731 14.0162 1.23196 14.2418 1.23292H15.9968C16.128 1.23226 16.2579 1.25746 16.3793 1.30707C16.5007 1.35668 16.6112 1.42973 16.7043 1.52204C16.7975 1.61436 16.8715 1.72413 16.9222 1.84508C16.9729 1.96602 16.9993 2.09578 16.9998 2.22692C16.9992 2.35798 16.9727 2.48763 16.9219 2.60846C16.8712 2.72929 16.7971 2.83895 16.704 2.93115C16.6108 3.02336 16.5005 3.09632 16.3791 3.14587C16.2578 3.19542 16.1279 3.22058 15.9968 3.21992H15.0368L13.7228 8.78992Z" fill="#A7ADB7"/>
<path d="M3.82578 16.5001C3.4893 16.5015 3.16604 16.3692 2.92699 16.1324C2.68794 15.8956 2.55263 15.5736 2.55078 15.2371C2.55078 14.5391 3.12078 13.9741 3.82578 13.9741C4.52978 13.9741 5.10078 14.5391 5.10078 15.2371C5.10078 15.9341 4.53078 16.5001 3.82578 16.5001ZM11.4758 16.5001C11.1393 16.5015 10.816 16.3692 10.577 16.1324C10.3379 15.8956 10.2026 15.5736 10.2008 15.2371C10.2008 14.5391 10.7708 13.9741 11.4758 13.9741C12.1798 13.9741 12.7508 14.5391 12.7508 15.2371C12.7508 15.9341 12.1808 16.5001 11.4758 16.5001Z" fill="#A7ADB7"/>
</g>
<defs>
<clipPath id="clip0_914_215">
<rect width="17" height="16" fill="white" transform="translate(0 0.5)"/>
</clipPath>
</defs>
</svg>
