<svg width="16" height="16" viewBox="0 0 16 16" fill="none" xmlns="http://www.w3.org/2000/svg">
<path d="M3.10363 1.93989C3.41228 1.83281 3.74816 1.83387 4.05613 1.94289C4.77613 2.20014 6.48388 4.46814 6.52588 5.22189C6.56338 5.88564 6.03838 6.23214 5.75713 6.41814C5.26138 6.74664 5.16988 7.14939 5.45188 7.76664C6.03463 9.04239 7.05388 10.0091 8.48188 10.6391C8.65888 10.7179 8.82088 10.7576 8.96338 10.7576C9.20488 10.7576 9.40063 10.6421 9.56188 10.4036C9.92638 9.86664 10.3674 9.59439 10.8736 9.59439C11.2486 9.59439 11.6469 9.74139 12.0886 10.0444L12.3039 10.1899C12.6489 10.4246 13.0066 10.6669 13.3419 10.9301C13.4056 10.9796 13.4731 11.0299 13.5384 11.0786C14.0334 11.4461 14.6484 11.9051 14.3109 12.8314C13.9261 13.8896 12.6736 14.8181 11.6304 14.8181H11.6131C11.5944 14.8179 11.5758 14.8154 11.5576 14.8106C11.5246 14.8016 11.4796 14.7919 11.4279 14.7806C11.2741 14.7469 11.0649 14.7011 10.8654 14.6179C8.64688 13.6879 6.73288 12.4504 5.17513 10.9384C3.58363 9.39489 2.32138 7.52439 1.42438 5.37864C1.11388 4.63614 1.10113 3.92364 1.38688 3.31614C1.68313 2.68614 2.27638 2.21139 3.10363 1.94064V1.93989ZM8.58838 1.18239C8.64613 1.18239 8.70238 1.18539 8.75188 1.18914C8.79313 1.19139 8.83213 1.19439 8.86438 1.19439C8.88388 1.19439 8.89438 1.19289 8.90188 1.19214C8.91432 1.19062 8.92685 1.18987 8.93938 1.18989C12.1051 1.29489 14.8479 4.09239 14.8089 7.17789C14.8089 7.21914 14.8111 7.26639 14.8134 7.31664C14.8224 7.52139 14.8344 7.77639 14.6656 7.94814C14.5696 8.04564 14.4346 8.09589 14.2651 8.09589H14.2479C13.7079 8.08539 13.6996 7.59489 13.6951 7.35939C13.6957 7.29928 13.693 7.23919 13.6869 7.17939C13.2946 4.16214 11.8809 2.74389 8.80663 2.28339C8.75629 2.27724 8.70576 2.27274 8.65513 2.26989C8.42563 2.25339 7.94788 2.21964 7.97638 1.73889C7.98838 1.53039 8.08438 1.18164 8.58838 1.18164V1.18239ZM8.77588 2.92239C8.88388 2.92239 8.99113 2.93889 9.09388 2.95539C9.14188 2.96289 9.18688 2.97039 9.22888 2.97489C11.3116 3.21864 12.9939 4.98114 12.9766 6.90414C12.9766 6.91314 12.9766 6.92139 12.9744 6.93039C12.9706 6.97807 12.9706 7.02597 12.9744 7.07364C12.9804 7.27089 12.9954 7.68189 12.5326 7.75014C12.4869 7.75764 12.4426 7.76064 12.4014 7.76064L12.3076 7.75464C11.9011 7.70214 11.8756 7.29714 11.8636 7.09464C11.8611 7.04243 11.8561 6.99037 11.8486 6.93864C11.5411 5.13114 10.9104 4.49064 9.03838 4.08339C8.99188 4.07364 8.93638 4.06614 8.87788 4.05789C8.67838 4.03164 8.42938 3.99789 8.28763 3.81039C8.20363 3.69939 8.17588 3.55764 8.20513 3.38814C8.23513 3.21414 8.34913 2.92164 8.77663 2.92164L8.77588 2.92239ZM9.11638 4.72089C9.59038 4.70964 10.1109 4.94964 10.5429 5.37714C10.9726 5.80239 11.2254 6.33714 11.2201 6.80814C11.2351 7.25889 11.0664 7.50864 10.7184 7.54839C10.6967 7.55111 10.6749 7.55236 10.6531 7.55214L10.5759 7.54689C10.3239 7.51014 10.1349 7.29489 10.1049 6.99864C10.0329 6.29889 9.67363 5.92239 8.97388 5.81289C8.78038 5.78289 8.56888 5.72739 8.45788 5.54739C8.38288 5.42439 8.37538 5.27514 8.43538 5.10264C8.56663 4.73364 8.93788 4.72539 9.11638 4.72089Z" fill="white"/>
</svg>
